<svg id="visual" viewBox="0 0 1920 1080" width="1920" height="1080" xmlns="http://www.w3.org/2000/svg" xmlns:xlink="http://www.w3.org/1999/xlink" version="1.1"><rect x="0" y="0" width="1920" height="1080" fill="#935466"></rect><defs><linearGradient id="grad1_0" x1="43.8%" y1="100%" x2="100%" y2="0%"><stop offset="14.444444444444446%" stop-color="#7c0b2b" stop-opacity="1"></stop><stop offset="85.55555555555554%" stop-color="#7c0b2b" stop-opacity="1"></stop></linearGradient></defs><defs><linearGradient id="grad1_1" x1="43.8%" y1="100%" x2="100%" y2="0%"><stop offset="14.444444444444446%" stop-color="#7c0b2b" stop-opacity="1"></stop><stop offset="85.55555555555554%" stop-color="#801a34" stop-opacity="1"></stop></linearGradient></defs><defs><linearGradient id="grad1_2" x1="43.8%" y1="100%" x2="100%" y2="0%"><stop offset="14.444444444444446%" stop-color="#84263c" stop-opacity="1"></stop><stop offset="85.55555555555554%" stop-color="#801a34" stop-opacity="1"></stop></linearGradient></defs><defs><linearGradient id="grad1_3" x1="43.8%" y1="100%" x2="100%" y2="0%"><stop offset="14.444444444444446%" stop-color="#84263c" stop-opacity="1"></stop><stop offset="85.55555555555554%" stop-color="#873045" stop-opacity="1"></stop></linearGradient></defs><defs><linearGradient id="grad1_4" x1="43.8%" y1="100%" x2="100%" y2="0%"><stop offset="14.444444444444446%" stop-color="#8b394d" stop-opacity="1"></stop><stop offset="85.55555555555554%" stop-color="#873045" stop-opacity="1"></stop></linearGradient></defs><defs><linearGradient id="grad1_5" x1="43.8%" y1="100%" x2="100%" y2="0%"><stop offset="14.444444444444446%" stop-color="#8b394d" stop-opacity="1"></stop><stop offset="85.55555555555554%" stop-color="#8e4356" stop-opacity="1"></stop></linearGradient></defs><defs><linearGradient id="grad1_6" x1="43.8%" y1="100%" x2="100%" y2="0%"><stop offset="14.444444444444446%" stop-color="#904b5e" stop-opacity="1"></stop><stop offset="85.55555555555554%" stop-color="#8e4356" stop-opacity="1"></stop></linearGradient></defs><defs><linearGradient id="grad1_7" x1="43.8%" y1="100%" x2="100%" y2="0%"><stop offset="14.444444444444446%" stop-color="#904b5e" stop-opacity="1"></stop><stop offset="85.55555555555554%" stop-color="#935466" stop-opacity="1"></stop></linearGradient></defs><defs><linearGradient id="grad2_0" x1="0%" y1="100%" x2="56.3%" y2="0%"><stop offset="14.444444444444446%" stop-color="#7c0b2b" stop-opacity="1"></stop><stop offset="85.55555555555554%" stop-color="#7c0b2b" stop-opacity="1"></stop></linearGradient></defs><defs><linearGradient id="grad2_1" x1="0%" y1="100%" x2="56.3%" y2="0%"><stop offset="14.444444444444446%" stop-color="#801a34" stop-opacity="1"></stop><stop offset="85.55555555555554%" stop-color="#7c0b2b" stop-opacity="1"></stop></linearGradient></defs><defs><linearGradient id="grad2_2" x1="0%" y1="100%" x2="56.3%" y2="0%"><stop offset="14.444444444444446%" stop-color="#801a34" stop-opacity="1"></stop><stop offset="85.55555555555554%" stop-color="#84263c" stop-opacity="1"></stop></linearGradient></defs><defs><linearGradient id="grad2_3" x1="0%" y1="100%" x2="56.3%" y2="0%"><stop offset="14.444444444444446%" stop-color="#873045" stop-opacity="1"></stop><stop offset="85.55555555555554%" stop-color="#84263c" stop-opacity="1"></stop></linearGradient></defs><defs><linearGradient id="grad2_4" x1="0%" y1="100%" x2="56.3%" y2="0%"><stop offset="14.444444444444446%" stop-color="#873045" stop-opacity="1"></stop><stop offset="85.55555555555554%" stop-color="#8b394d" stop-opacity="1"></stop></linearGradient></defs><defs><linearGradient id="grad2_5" x1="0%" y1="100%" x2="56.3%" y2="0%"><stop offset="14.444444444444446%" stop-color="#8e4356" stop-opacity="1"></stop><stop offset="85.55555555555554%" stop-color="#8b394d" stop-opacity="1"></stop></linearGradient></defs><defs><linearGradient id="grad2_6" x1="0%" y1="100%" x2="56.3%" y2="0%"><stop offset="14.444444444444446%" stop-color="#8e4356" stop-opacity="1"></stop><stop offset="85.55555555555554%" stop-color="#904b5e" stop-opacity="1"></stop></linearGradient></defs><defs><linearGradient id="grad2_7" x1="0%" y1="100%" x2="56.3%" y2="0%"><stop offset="14.444444444444446%" stop-color="#935466" stop-opacity="1"></stop><stop offset="85.55555555555554%" stop-color="#904b5e" stop-opacity="1"></stop></linearGradient></defs><g transform="translate(1920, 1080)"><path d="M-1080 0C-1078.9 -53.7 -1077.8 -107.4 -1037.3 -149.1C-996.8 -190.9 -917 -220.7 -888.5 -260.9C-860 -301 -883 -351.5 -901.4 -411.7C-919.9 -471.9 -934 -541.8 -900.1 -578.5C-866.3 -615.1 -784.6 -618.5 -727.8 -630.6C-670.9 -642.8 -638.9 -663.7 -626 -722.5C-613.2 -781.3 -619.5 -878.1 -583.9 -908.6C-548.3 -939.1 -470.7 -903.3 -416.7 -912.4C-362.6 -921.4 -332 -975.2 -288.2 -981.6C-244.5 -987.9 -187.6 -946.7 -137.3 -955.2C-87.1 -963.7 -43.6 -1021.8 0 -1080L0 0Z" fill="#925062"></path><path d="M-945 0C-944 -47 -943.1 -94 -907.7 -130.5C-872.2 -167 -802.3 -193.1 -777.4 -228.3C-752.5 -263.4 -772.6 -307.5 -788.8 -360.2C-804.9 -412.9 -817.2 -474.1 -787.6 -506.2C-758 -538.2 -686.6 -541.2 -636.8 -551.8C-587.1 -562.4 -559 -580.7 -547.8 -632.2C-536.5 -683.7 -542.1 -768.3 -510.9 -795C-479.7 -821.7 -411.9 -790.4 -364.6 -798.3C-317.3 -806.2 -290.5 -853.3 -252.2 -858.9C-213.9 -864.4 -164.1 -828.4 -120.2 -835.8C-76.2 -843.2 -38.1 -894.1 0 -945L0 0Z" fill="#8f475a"></path><path d="M-810 0C-809.2 -40.3 -808.4 -80.5 -778 -111.9C-747.6 -143.2 -687.7 -165.6 -666.4 -195.7C-645 -225.8 -662.2 -263.6 -676.1 -308.8C-689.9 -353.9 -700.5 -406.4 -675.1 -433.9C-649.7 -461.4 -588.5 -463.9 -545.8 -473C-503.2 -482.1 -479.2 -497.8 -469.5 -541.9C-459.9 -586 -464.6 -658.5 -437.9 -681.4C-411.2 -704.3 -353.1 -677.5 -312.5 -684.3C-271.9 -691.1 -249 -731.4 -216.2 -736.2C-183.3 -740.9 -140.7 -710 -103 -716.4C-65.3 -722.7 -32.7 -766.4 0 -810L0 0Z" fill="#8c3e52"></path><path d="M-675 0C-674.3 -33.6 -673.6 -67.1 -648.3 -93.2C-623 -119.3 -573.1 -138 -555.3 -163.1C-537.5 -188.1 -551.8 -219.7 -563.4 -257.3C-575 -294.9 -583.7 -338.6 -562.6 -361.6C-541.4 -384.5 -490.4 -386.6 -454.9 -394.1C-419.3 -401.7 -399.3 -414.8 -391.3 -451.6C-383.2 -488.3 -387.2 -548.8 -364.9 -567.8C-342.7 -586.9 -294.2 -564.6 -260.4 -570.2C-226.6 -575.9 -207.5 -609.5 -180.1 -613.5C-152.8 -617.4 -117.2 -591.7 -85.8 -597C-54.4 -602.3 -27.2 -638.6 0 -675L0 0Z" fill="#893549"></path><path d="M-540 0C-539.5 -26.8 -538.9 -53.7 -518.7 -74.6C-498.4 -95.5 -458.5 -110.4 -444.2 -130.4C-430 -150.5 -441.5 -175.7 -450.7 -205.8C-460 -235.9 -467 -270.9 -450.1 -289.2C-433.2 -307.6 -392.3 -309.2 -363.9 -315.3C-335.5 -321.4 -319.5 -331.8 -313 -361.2C-306.6 -390.7 -309.8 -439 -291.9 -454.3C-274.1 -469.5 -235.4 -451.7 -208.3 -456.2C-181.3 -460.7 -166 -487.6 -144.1 -490.8C-122.2 -493.9 -93.8 -473.3 -68.7 -477.6C-43.6 -481.8 -21.8 -510.9 0 -540L0 0Z" fill="#862b41"></path><path d="M-405 0C-404.6 -20.1 -404.2 -40.3 -389 -55.9C-373.8 -71.6 -343.9 -82.8 -333.2 -97.8C-322.5 -112.9 -331.1 -131.8 -338 -154.4C-345 -177 -350.2 -203.2 -337.6 -216.9C-324.9 -230.7 -294.2 -231.9 -272.9 -236.5C-251.6 -241 -239.6 -248.9 -234.8 -270.9C-229.9 -293 -232.3 -329.3 -219 -340.7C-205.6 -352.1 -176.5 -338.7 -156.2 -342.1C-136 -345.5 -124.5 -365.7 -108.1 -368.1C-91.7 -370.5 -70.3 -355 -51.5 -358.2C-32.7 -361.4 -16.3 -383.2 0 -405L0 0Z" fill="#822038"></path><path d="M-270 0C-269.7 -13.4 -269.5 -26.8 -259.3 -37.3C-249.2 -47.7 -229.2 -55.2 -222.1 -65.2C-215 -75.3 -220.7 -87.9 -225.4 -102.9C-230 -118 -233.5 -135.5 -225 -144.6C-216.6 -153.8 -196.2 -154.6 -181.9 -157.7C-167.7 -160.7 -159.7 -165.9 -156.5 -180.6C-153.3 -195.3 -154.9 -219.5 -146 -227.1C-137.1 -234.8 -117.7 -225.8 -104.2 -228.1C-90.6 -230.4 -83 -243.8 -72.1 -245.4C-61.1 -247 -46.9 -236.7 -34.3 -238.8C-21.8 -240.9 -10.9 -255.5 0 -270L0 0Z" fill="#7e142f"></path><path d="M-135 0C-134.9 -6.7 -134.7 -13.4 -129.7 -18.6C-124.6 -23.9 -114.6 -27.6 -111.1 -32.6C-107.5 -37.6 -110.4 -43.9 -112.7 -51.5C-115 -59 -116.7 -67.7 -112.5 -72.3C-108.3 -76.9 -98.1 -77.3 -91 -78.8C-83.9 -80.3 -79.9 -83 -78.3 -90.3C-76.6 -97.7 -77.4 -109.8 -73 -113.6C-68.5 -117.4 -58.8 -112.9 -52.1 -114C-45.3 -115.2 -41.5 -121.9 -36 -122.7C-30.6 -123.5 -23.4 -118.3 -17.2 -119.4C-10.9 -120.5 -5.4 -127.7 0 -135L0 0Z" fill="#7c0b2b"></path></g><g transform="translate(0, 0)"><path d="M1080 0C1048.7 47.6 1017.3 95.2 1000.7 143.9C984.1 192.6 982.2 242.3 952.8 279.8C923.4 317.2 866.4 342.3 852.3 389.2C838.2 436.2 867 505 855.6 549.8C844.1 594.7 792.6 615.6 770.1 667.3C747.7 719 754.4 801.5 707.2 816.2C660.1 830.9 559.2 777.9 502.3 781.5C445.3 785.2 432.3 845.5 399.2 874.2C366.1 902.8 312.8 899.7 267.1 909.6C221.3 919.5 183.2 942.4 139.9 973C96.6 1003.6 48.3 1041.8 0 1080L0 0Z" fill="#925062"></path><path d="M945 0C917.6 41.6 890.2 83.3 875.6 125.9C861.1 168.5 859.4 212 833.7 244.8C807.9 277.5 758.1 299.5 745.8 340.6C733.5 381.7 758.6 441.9 748.6 481.1C738.6 520.3 693.5 538.7 673.8 583.9C654.2 629.1 660.1 701.3 618.8 714.2C577.6 727.1 489.3 680.6 439.5 683.8C389.6 687 378.3 739.8 349.3 764.9C320.3 789.9 273.7 787.2 233.7 795.9C193.7 804.6 160.3 824.6 122.4 851.4C84.6 878.1 42.3 911.6 0 945L0 0Z" fill="#8f475a"></path><path d="M810 0C786.5 35.7 763 71.4 750.5 107.9C738.1 144.4 736.6 181.7 714.6 209.8C692.5 237.9 649.8 256.7 639.2 291.9C628.7 327.1 650.2 378.7 641.7 412.4C633.1 446 594.4 461.7 577.6 500.5C560.7 539.3 565.8 601.1 530.4 612.2C495.1 623.2 419.4 583.4 376.7 586.1C334 588.9 324.3 634.1 299.4 655.6C274.6 677.1 234.6 674.8 200.3 682.2C166 689.6 137.4 706.8 104.9 729.7C72.5 752.7 36.2 781.3 0 810L0 0Z" fill="#8c3e52"></path><path d="M675 0C655.4 29.7 635.8 59.5 625.4 89.9C615.1 120.4 613.9 151.5 595.5 174.9C577.1 198.2 541.5 213.9 532.7 243.3C523.9 272.6 541.9 315.6 534.7 343.6C527.6 371.7 495.3 384.8 481.3 417.1C467.3 449.4 471.5 500.9 442 510.1C412.6 519.3 349.5 486.2 313.9 488.5C278.3 490.7 270.2 528.5 249.5 546.3C228.8 564.2 195.5 562.3 166.9 568.5C138.3 574.7 114.5 589 87.4 608.1C60.4 627.2 30.2 651.1 0 675L0 0Z" fill="#893549"></path><path d="M540 0C524.3 23.8 508.7 47.6 500.4 71.9C492 96.3 491.1 121.2 476.4 139.9C461.7 158.6 433.2 171.1 426.2 194.6C419.1 218.1 433.5 252.5 427.8 274.9C422.1 297.3 396.3 307.8 385.1 333.7C373.8 359.5 377.2 400.7 353.6 408.1C330.1 415.5 279.6 388.9 251.1 390.8C222.7 392.6 216.2 422.8 199.6 437.1C183 451.4 156.4 449.8 133.5 454.8C110.7 459.8 91.6 471.2 69.9 486.5C48.3 501.8 24.2 520.9 0 540L0 0Z" fill="#862b41"></path><path d="M405 0C393.2 17.8 381.5 35.7 375.3 54C369 72.2 368.3 90.9 357.3 104.9C346.3 118.9 324.9 128.4 319.6 146C314.3 163.6 325.1 189.4 320.8 206.2C316.6 223 297.2 230.9 288.8 250.2C280.4 269.6 282.9 300.6 265.2 306.1C247.6 311.6 209.7 291.7 188.3 293.1C167 294.4 162.1 317.1 149.7 327.8C137.3 338.5 117.3 337.4 100.2 341.1C83 344.8 68.7 353.4 52.5 364.9C36.2 376.3 18.1 390.7 0 405L0 0Z" fill="#822038"></path><path d="M270 0C262.2 11.9 254.3 23.8 250.2 36C246 48.1 245.5 60.6 238.2 69.9C230.8 79.3 216.6 85.6 213.1 97.3C209.6 109 216.7 126.2 213.9 137.5C211 148.7 198.1 153.9 192.5 166.8C186.9 179.8 188.6 200.4 176.8 204.1C165 207.7 139.8 194.5 125.6 195.4C111.3 196.3 108.1 211.4 99.8 218.5C91.5 225.7 78.2 224.9 66.8 227.4C55.3 229.9 45.8 235.6 35 243.2C24.2 250.9 12.1 260.4 0 270L0 0Z" fill="#7e142f"></path><path d="M135 0C131.1 5.9 127.2 11.9 125.1 18C123 24.1 122.8 30.3 119.1 35C115.4 39.6 108.3 42.8 106.5 48.7C104.8 54.5 108.4 63.1 106.9 68.7C105.5 74.3 99.1 77 96.3 83.4C93.5 89.9 94.3 100.2 88.4 102C82.5 103.9 69.9 97.2 62.8 97.7C55.7 98.1 54 105.7 49.9 109.3C45.8 112.8 39.1 112.5 33.4 113.7C27.7 114.9 22.9 117.8 17.5 121.6C12.1 125.4 6 130.2 0 135L0 0Z" fill="#7c0b2b"></path></g></svg>