<svg id="visual" viewBox="0 0 960 540" width="960" height="540" xmlns="http://www.w3.org/2000/svg" xmlns:xlink="http://www.w3.org/1999/xlink" version="1.1"><rect x="0" y="0" width="960" height="540" fill="#ffcbdd"></rect><defs><linearGradient id="grad1_0" x1="43.8%" y1="0%" x2="100%" y2="100%"><stop offset="14.444444444444446%" stop-color="#7c0b2b" stop-opacity="1"></stop><stop offset="85.55555555555554%" stop-color="#7c0b2b" stop-opacity="1"></stop></linearGradient></defs><defs><linearGradient id="grad1_1" x1="43.8%" y1="0%" x2="100%" y2="100%"><stop offset="14.444444444444446%" stop-color="#7c0b2b" stop-opacity="1"></stop><stop offset="85.55555555555554%" stop-color="#902d43" stop-opacity="1"></stop></linearGradient></defs><defs><linearGradient id="grad1_2" x1="43.8%" y1="0%" x2="100%" y2="100%"><stop offset="14.444444444444446%" stop-color="#a4485c" stop-opacity="1"></stop><stop offset="85.55555555555554%" stop-color="#902d43" stop-opacity="1"></stop></linearGradient></defs><defs><linearGradient id="grad1_3" x1="43.8%" y1="0%" x2="100%" y2="100%"><stop offset="14.444444444444446%" stop-color="#a4485c" stop-opacity="1"></stop><stop offset="85.55555555555554%" stop-color="#b76275" stop-opacity="1"></stop></linearGradient></defs><defs><linearGradient id="grad1_4" x1="43.8%" y1="0%" x2="100%" y2="100%"><stop offset="14.444444444444446%" stop-color="#c97c8f" stop-opacity="1"></stop><stop offset="85.55555555555554%" stop-color="#b76275" stop-opacity="1"></stop></linearGradient></defs><defs><linearGradient id="grad1_5" x1="43.8%" y1="0%" x2="100%" y2="100%"><stop offset="14.444444444444446%" stop-color="#c97c8f" stop-opacity="1"></stop><stop offset="85.55555555555554%" stop-color="#db96a9" stop-opacity="1"></stop></linearGradient></defs><defs><linearGradient id="grad1_6" x1="43.8%" y1="0%" x2="100%" y2="100%"><stop offset="14.444444444444446%" stop-color="#edb0c3" stop-opacity="1"></stop><stop offset="85.55555555555554%" stop-color="#db96a9" stop-opacity="1"></stop></linearGradient></defs><defs><linearGradient id="grad1_7" x1="43.8%" y1="0%" x2="100%" y2="100%"><stop offset="14.444444444444446%" stop-color="#edb0c3" stop-opacity="1"></stop><stop offset="85.55555555555554%" stop-color="#ffcbdd" stop-opacity="1"></stop></linearGradient></defs><defs><linearGradient id="grad2_0" x1="0%" y1="0%" x2="56.3%" y2="100%"><stop offset="14.444444444444446%" stop-color="#7c0b2b" stop-opacity="1"></stop><stop offset="85.55555555555554%" stop-color="#7c0b2b" stop-opacity="1"></stop></linearGradient></defs><defs><linearGradient id="grad2_1" x1="0%" y1="0%" x2="56.3%" y2="100%"><stop offset="14.444444444444446%" stop-color="#902d43" stop-opacity="1"></stop><stop offset="85.55555555555554%" stop-color="#7c0b2b" stop-opacity="1"></stop></linearGradient></defs><defs><linearGradient id="grad2_2" x1="0%" y1="0%" x2="56.3%" y2="100%"><stop offset="14.444444444444446%" stop-color="#902d43" stop-opacity="1"></stop><stop offset="85.55555555555554%" stop-color="#a4485c" stop-opacity="1"></stop></linearGradient></defs><defs><linearGradient id="grad2_3" x1="0%" y1="0%" x2="56.3%" y2="100%"><stop offset="14.444444444444446%" stop-color="#b76275" stop-opacity="1"></stop><stop offset="85.55555555555554%" stop-color="#a4485c" stop-opacity="1"></stop></linearGradient></defs><defs><linearGradient id="grad2_4" x1="0%" y1="0%" x2="56.3%" y2="100%"><stop offset="14.444444444444446%" stop-color="#b76275" stop-opacity="1"></stop><stop offset="85.55555555555554%" stop-color="#c97c8f" stop-opacity="1"></stop></linearGradient></defs><defs><linearGradient id="grad2_5" x1="0%" y1="0%" x2="56.3%" y2="100%"><stop offset="14.444444444444446%" stop-color="#db96a9" stop-opacity="1"></stop><stop offset="85.55555555555554%" stop-color="#c97c8f" stop-opacity="1"></stop></linearGradient></defs><defs><linearGradient id="grad2_6" x1="0%" y1="0%" x2="56.3%" y2="100%"><stop offset="14.444444444444446%" stop-color="#db96a9" stop-opacity="1"></stop><stop offset="85.55555555555554%" stop-color="#edb0c3" stop-opacity="1"></stop></linearGradient></defs><defs><linearGradient id="grad2_7" x1="0%" y1="0%" x2="56.3%" y2="100%"><stop offset="14.444444444444446%" stop-color="#ffcbdd" stop-opacity="1"></stop><stop offset="85.55555555555554%" stop-color="#edb0c3" stop-opacity="1"></stop></linearGradient></defs><g transform="translate(960, 0)"><path d="M0 486C-84.6 473.1 -169.3 460.1 -243 420.9C-316.7 381.6 -379.6 316 -418.3 241.5C-457 167 -471.5 83.5 -486 0L0 0Z" fill="#f6bdd0"></path><path d="M0 425.3C-74 413.9 -148.1 402.6 -212.6 368.3C-277.2 333.9 -332.2 276.5 -366 211.3C-399.9 146.1 -412.6 73 -425.2 0L0 0Z" fill="#e4a3b6"></path><path d="M0 364.5C-63.5 354.8 -126.9 345.1 -182.2 315.7C-237.6 286.2 -284.7 237 -313.7 181.1C-342.7 125.2 -353.6 62.6 -364.5 0L0 0Z" fill="#d2899c"></path><path d="M0 303.8C-52.9 295.7 -105.8 287.6 -151.9 263.1C-198 238.5 -237.3 197.5 -261.4 150.9C-285.6 104.4 -294.7 52.2 -303.7 0L0 0Z" fill="#c06f82"></path><path d="M0 243C-42.3 236.5 -84.6 230.1 -121.5 210.4C-158.4 190.8 -189.8 158 -209.1 120.8C-228.5 83.5 -235.7 41.7 -243 0L0 0Z" fill="#ae5568"></path><path d="M0 182.3C-31.7 177.4 -63.5 172.6 -91.1 157.8C-118.8 143.1 -142.4 118.5 -156.9 90.6C-171.4 62.6 -176.8 31.3 -182.2 0L0 0Z" fill="#9a3b4f"></path><path d="M0 121.5C-21.2 118.3 -42.3 115 -60.7 105.2C-79.2 95.4 -94.9 79 -104.6 60.4C-114.2 41.7 -117.9 20.9 -121.5 0L0 0Z" fill="#861e37"></path><path d="M0 60.8C-10.6 59.1 -21.2 57.5 -30.4 52.6C-39.6 47.7 -47.5 39.5 -52.3 30.2C-57.1 20.9 -58.9 10.4 -60.7 0L0 0Z" fill="#7c0b2b"></path></g><g transform="translate(0, 540)"><path d="M0 -486C85.8 -473.7 171.6 -461.5 243 -420.9C314.4 -380.3 371.5 -311.4 409.6 -236.5C447.7 -161.6 466.9 -80.8 486 0L0 0Z" fill="#f6bdd0"></path><path d="M0 -425.2C75.1 -414.5 150.1 -403.8 212.6 -368.3C275.1 -332.8 325.1 -272.4 358.4 -206.9C391.8 -141.4 408.5 -70.7 425.3 0L0 0Z" fill="#e4a3b6"></path><path d="M0 -364.5C64.3 -355.3 128.7 -346.1 182.2 -315.7C235.8 -285.2 278.6 -233.5 307.2 -177.4C335.8 -121.2 350.2 -60.6 364.5 0L0 0Z" fill="#d2899c"></path><path d="M0 -303.7C53.6 -296.1 107.2 -288.4 151.9 -263.1C196.5 -237.7 232.2 -194.6 256 -147.8C279.8 -101 291.8 -50.5 303.8 0L0 0Z" fill="#c06f82"></path><path d="M0 -243C42.9 -236.9 85.8 -230.7 121.5 -210.4C157.2 -190.1 185.8 -155.7 204.8 -118.3C223.9 -80.8 233.4 -40.4 243 0L0 0Z" fill="#ae5568"></path><path d="M0 -182.2C32.2 -177.7 64.3 -173.1 91.1 -157.8C117.9 -142.6 139.3 -116.8 153.6 -88.7C167.9 -60.6 175.1 -30.3 182.3 0L0 0Z" fill="#9a3b4f"></path><path d="M0 -121.5C21.4 -118.4 42.9 -115.4 60.7 -105.2C78.6 -95.1 92.9 -77.8 102.4 -59.1C111.9 -40.4 116.7 -20.2 121.5 0L0 0Z" fill="#861e37"></path><path d="M0 -60.7C10.7 -59.2 21.4 -57.7 30.4 -52.6C39.3 -47.5 46.4 -38.9 51.2 -29.6C56 -20.2 58.4 -10.1 60.8 0L0 0Z" fill="#7c0b2b"></path></g></svg>