<svg id="visual" viewBox="0 0 900 450" width="900" height="450" xmlns="http://www.w3.org/2000/svg" xmlns:xlink="http://www.w3.org/1999/xlink" version="1.1"><rect x="0" y="0" width="900" height="450" fill="#ffcbdd"></rect><path d="M0 223L25 230.7C50 238.3 100 253.7 150 254C200 254.3 250 239.7 300 236C350 232.3 400 239.7 450 238.8C500 238 550 229 600 244.2C650 259.3 700 298.7 750 291.8C800 285 850 232 875 205.5L900 179L900 451L875 451C850 451 800 451 750 451C700 451 650 451 600 451C550 451 500 451 450 451C400 451 350 451 300 451C250 451 200 451 150 451C100 451 50 451 25 451L0 451Z" fill="#5a0d23"></path><path d="M0 295L25 282.8C50 270.7 100 246.3 150 249.5C200 252.7 250 283.3 300 296.8C350 310.3 400 306.7 450 305.7C500 304.7 550 306.3 600 295.8C650 285.3 700 262.7 750 254.3C800 246 850 252 875 255L900 258L900 451L875 451C850 451 800 451 750 451C700 451 650 451 600 451C550 451 500 451 450 451C400 451 350 451 300 451C250 451 200 451 150 451C100 451 50 451 25 451L0 451Z" fill="#650d26"></path><path d="M0 251L25 261C50 271 100 291 150 296.8C200 302.7 250 294.3 300 296.5C350 298.7 400 311.3 450 317.7C500 324 550 324 600 317.7C650 311.3 700 298.7 750 293.7C800 288.7 850 291.3 875 292.7L900 294L900 451L875 451C850 451 800 451 750 451C700 451 650 451 600 451C550 451 500 451 450 451C400 451 350 451 300 451C250 451 200 451 150 451C100 451 50 451 25 451L0 451Z" fill="#710c29"></path><path d="M0 374L25 368.3C50 362.7 100 351.3 150 342.2C200 333 250 326 300 332.7C350 339.3 400 359.7 450 365C500 370.3 550 360.7 600 343.8C650 327 700 303 750 294C800 285 850 291 875 294L900 297L900 451L875 451C850 451 800 451 750 451C700 451 650 451 600 451C550 451 500 451 450 451C400 451 350 451 300 451C250 451 200 451 150 451C100 451 50 451 25 451L0 451Z" fill="#7c0b2b"></path><path d="M0 319L25 330C50 341 100 363 150 369.3C200 375.7 250 366.3 300 358C350 349.7 400 342.3 450 338C500 333.7 550 332.3 600 332C650 331.7 700 332.3 750 331.3C800 330.3 850 327.7 875 326.3L900 325L900 451L875 451C850 451 800 451 750 451C700 451 650 451 600 451C550 451 500 451 450 451C400 451 350 451 300 451C250 451 200 451 150 451C100 451 50 451 25 451L0 451Z" fill="#891a36"></path><path d="M0 367L25 374C50 381 100 395 150 393.7C200 392.3 250 375.7 300 369C350 362.3 400 365.7 450 373.7C500 381.7 550 394.3 600 390.8C650 387.3 700 367.7 750 366.8C800 366 850 384 875 393L900 402L900 451L875 451C850 451 800 451 750 451C700 451 650 451 600 451C550 451 500 451 450 451C400 451 350 451 300 451C250 451 200 451 150 451C100 451 50 451 25 451L0 451Z" fill="#962742"></path><path d="M0 410L25 412.3C50 414.7 100 419.3 150 416.5C200 413.7 250 403.3 300 398.8C350 394.3 400 395.7 450 397.3C500 399 550 401 600 399.2C650 397.3 700 391.7 750 394.5C800 397.3 850 408.7 875 414.3L900 420L900 451L875 451C850 451 800 451 750 451C700 451 650 451 600 451C550 451 500 451 450 451C400 451 350 451 300 451C250 451 200 451 150 451C100 451 50 451 25 451L0 451Z" fill="#a3334e"></path></svg>